HIERARCHY
ROOT hip
{
  OFFSET 313.241 85.5226 -38.7667
  CHANNELS 6 Xposition Yposition Zposition Zrotation Xrotation Yrotation
  JOINT abdomen
  {
    OFFSET 0 20.6881 -0.73152
    CHANNELS 3 Zrotation Xrotation Yrotation
    JOINT chest
    {
      OFFSET 0 11.7043 -0.48768
      CHANNELS 3 Zrotation Xrotation Yrotation
      JOINT neck
      {
        OFFSET 0 22.1894 -2.19456
        CHANNELS 3 Zrotation Xrotation Yrotation
        JOINT head
        {
          OFFSET -0.24384 7.07133 1.2192
          CHANNELS 3 Zrotation Xrotation Yrotation
          JOINT leftEye
          {
            OFFSET 4.14528 8.04674 8.04672
            CHANNELS 3 Zrotation Xrotation Yrotation
            End Site
            {
              OFFSET 1 0 0
            }
          }
          JOINT rightEye
          {
            OFFSET -3.6576 8.04674 8.04672
            CHANNELS 3 Zrotation Xrotation Yrotation
            End Site
            {
              OFFSET 1 0 0
            }
          }
        }
      }
      JOINT rCollar
      {
        OFFSET -2.68224 19.2634 -4.8768
        CHANNELS 3 Zrotation Xrotation Yrotation
        JOINT rShldr
        {
          OFFSET -8.77824 -1.95073 1.46304
          CHANNELS 3 Zrotation Xrotation Yrotation
          JOINT rForeArm
          {
            OFFSET -28.1742 -1.7115 0.48768
            CHANNELS 3 Zrotation Xrotation Yrotation
            JOINT rHand
            {
              OFFSET -22.5879 0.773209 7.07136
              CHANNELS 3 Zrotation Xrotation Yrotation
              JOINT rThumb1
              {
                OFFSET -1.2192 -0.487915 3.41376
                CHANNELS 3 Zrotation Xrotation Yrotation
                JOINT rThumb2
                {
                  OFFSET -3.37035 -0.52449 3.41376
                  CHANNELS 3 Zrotation Xrotation Yrotation
                  End Site
                  {
                    OFFSET -1.78271 -1.18214 1.43049
                  }
                }
              }
              JOINT rIndex1
              {
                OFFSET -7.75947 0.938293 5.60832
                CHANNELS 3 Zrotation Xrotation Yrotation
                JOINT rIndex2
                {
                  OFFSET -2.54057 -0.884171 1.56538
                  CHANNELS 3 Zrotation Xrotation Yrotation
                  End Site
                  {
                    OFFSET -1.62519 -0.234802 1.16502
                  }
                }
              }
              JOINT rMid1
              {
                OFFSET -8.24714 1.18213 3.41376
                CHANNELS 3 Zrotation Xrotation Yrotation
                JOINT rMid2
                {
                  OFFSET -3.10165 -0.590103 1.0647
                  CHANNELS 3 Zrotation Xrotation Yrotation
                  End Site
                  {
                    OFFSET -2.48547 -0.328903 0.83742
                  }
                }
              }
              JOINT rRing1
              {
                OFFSET -8.82822 0.546677 1.51678
                CHANNELS 3 Zrotation Xrotation Yrotation
                JOINT rRing2
                {
                  OFFSET -2.60934 -0.819778 -0.0198488
                  CHANNELS 3 Zrotation Xrotation Yrotation
                  End Site
                  {
                    OFFSET -2.33842 -0.294052 0.168128
                  }
                }
              }
              JOINT rPinky1
              {
                OFFSET -8.27202 -0.0477905 -0.4584
                CHANNELS 3 Zrotation Xrotation Yrotation
                JOINT rPinky2
                {
                  OFFSET -1.82734 -0.647385 -0.700984
                  CHANNELS 3 Zrotation Xrotation Yrotation
                  End Site
                  {
                    OFFSET -1.69225 -0.51767 -0.607171
                  }
                }
              }
            }
          }
        }
      }
      JOINT lCollar
      {
        OFFSET 2.68224 19.2634 -4.8768
        CHANNELS 3 Zrotation Xrotation Yrotation
        JOINT lShldr
        {
          OFFSET 8.77824 -1.95073 1.46304
          CHANNELS 3 Zrotation Xrotation Yrotation
          JOINT lForeArm
          {
            OFFSET 28.1742 -1.7115 0.48768
            CHANNELS 3 Zrotation Xrotation Yrotation
            JOINT lHand
            {
              OFFSET 22.5879 0.773209 7.07136
              CHANNELS 3 Zrotation Xrotation Yrotation
              JOINT lThumb1
              {
                OFFSET 1.2192 -0.487915 3.41376
                CHANNELS 3 Zrotation Xrotation Yrotation
                JOINT lThumb2
                {
                  OFFSET 3.37035 -0.52449 3.41376
                  CHANNELS 3 Zrotation Xrotation Yrotation
                  End Site
                  {
                    OFFSET 1.78271 -1.18214 1.43049
                  }
                }
              }
              JOINT lIndex1
              {
                OFFSET 7.75947 0.938293 5.60832
                CHANNELS 3 Zrotation Xrotation Yrotation
                JOINT lIndex2
                {
                  OFFSET 2.54057 -0.884171 1.56538
                  CHANNELS 3 Zrotation Xrotation Yrotation
                  End Site
                  {
                    OFFSET 1.62519 -0.234802 1.16502
                  }
                }
              }
              JOINT lMid1
              {
                OFFSET 8.24714 1.18213 3.41376
                CHANNELS 3 Zrotation Xrotation Yrotation
                JOINT lMid2
                {
                  OFFSET 3.10165 -0.590103 1.0647
                  CHANNELS 3 Zrotation Xrotation Yrotation
                  End Site
                  {
                    OFFSET 2.48547 -0.328903 0.83742
                  }
                }
              }
              JOINT lRing1
              {
                OFFSET 8.82822 0.546677 1.51678
                CHANNELS 3 Zrotation Xrotation Yrotation
                JOINT lRing2
                {
                  OFFSET 2.60934 -0.819778 -0.0198488
                  CHANNELS 3 Zrotation Xrotation Yrotation
                  End Site
                  {
                    OFFSET 2.33842 -0.294052 0.168128
                  }
                }
              }
              JOINT lPinky1
              {
                OFFSET 8.27202 -0.0477905 -0.4584
                CHANNELS 3 Zrotation Xrotation Yrotation
                JOINT lPinky2
                {
                  OFFSET 1.82734 -0.647385 -0.700984
                  CHANNELS 3 Zrotation Xrotation Yrotation
                  End Site
                  {
                    OFFSET 1.69225 -0.51767 -0.607171
                  }
                }
              }
            }
          }
        }
      }
    }
  }
  JOINT rButtock
  {
    OFFSET -8.77824 4.35084 1.2192
    CHANNELS 3 Zrotation Xrotation Yrotation
    JOINT rThigh
    {
      OFFSET 0 -1.70687 -2.19456
      CHANNELS 3 Zrotation Xrotation Yrotation
      JOINT rShin
      {
        OFFSET 0 -36.8199 0.73152
        CHANNELS 3 Zrotation Xrotation Yrotation
        JOINT rFoot
        {
          OFFSET 0.73152 -45.1104 -5.12064
          CHANNELS 3 Zrotation Xrotation Yrotation
          End Site
          {
            OFFSET -1.1221 -3.69964 12.103
          }
        }
      }
    }
  }
  JOINT lButtock
  {
    OFFSET 8.77824 4.35084 1.2192
    CHANNELS 3 Zrotation Xrotation Yrotation
    JOINT lThigh
    {
      OFFSET 0 -1.70687 -2.19456
      CHANNELS 3 Zrotation Xrotation Yrotation
      JOINT lShin
      {
        OFFSET 0 -36.8199 0.73152
        CHANNELS 3 Zrotation Xrotation Yrotation
        JOINT lFoot
        {
          OFFSET -0.73152 -45.1104 -5.12064
          CHANNELS 3 Zrotation Xrotation Yrotation
          End Site
          {
            OFFSET 1.1221 -3.69964 12.103
          }
        }
      }
    }
  }
}
MOTION
Frames:	9
Frame Time:	0.00833333
114.309 90.2497 -23.2657 2.8215 -11.6916 -81.4959 12.9092 15.3424 18.3897 -5.92716 -4.98032 5.53073 -1.79268 -10.7027 -4.70289 4.08077 11.0607 -8.42001 -0 0 0 -0 0 0 -4.82359e-013 -3.67245e-012 5.42185e-014 60.2591 43.9998 20.6595 -28.1488 -39.5414 83.1038 -0.507769 -19.8275 -2.90466 -7.91016e-010 -6.50083e-009 -5.4312e-009 -1.29397e-009 -1.12487e-008 -9.38759e-009 -7.91007e-010 -6.50084e-009 -5.43121e-009 7.73091 5.47488 0.417314 -7.91016e-010 -6.50083e-009 -5.4312e-009 2.90554 0.965183 0.102902 -7.91007e-010 -6.50083e-009 -5.4312e-009 10.2786 0.731801 0.0259123 -7.91017e-010 -6.50083e-009 -5.43119e-009 2.22167 -0.733487 -0.20892 -4.82474e-013 -3.67245e-012 5.397e-014 -116.392 44.9854 78.7428 27.8226 -29.643 -66.6794 0.350891 -16.6123 2.40312 2.7044e-009 -4.87576e-010 -2.3738e-009 4.69704e-009 -8.42713e-010 -4.06806e-009 2.70439e-009 -4.87581e-010 -2.37379e-009 -7.73091 5.47488 -0.417314 2.70439e-009 -4.87588e-010 -2.3738e-009 -2.90554 0.965183 -0.102902 2.70439e-009 -4.87585e-010 -2.3738e-009 -10.2786 0.731801 -0.0259123 2.7044e-009 -4.87585e-010 -2.3738e-009 -2.22167 -0.733487 0.20892 -2.03217e-016 0 -3.88251e-019 6.50384 21.0615 4.54958 0.041629 26.5893 1.12313 -0.87227 3.96365 0.034904 2.03217e-016 0 3.88251e-019 25.2068 -43.4713 14.4687 0.511258 48.1765 -1.14149 3.03319 -7.19605 10.3906 
118.13 90.7367 -23.4321 2.69797 -11.3731 -80.9043 12.1513 14.8764 19.473 -6.22631 -4.75915 5.77623 -2.03804 -10.5937 -5.01537 4.96547 11.5496 -8.99389 -0 0 0 -0 0 0 -4.24546e-013 -3.1623e-012 5.17236e-014 59.5191 44.5556 20.7405 -28.0337 -40.151 84.2579 -0.537041 -20.2934 -2.98018 -6.30437e-010 -5.07374e-009 -4.33164e-009 -1.03198e-009 -8.77656e-009 -7.48586e-009 -6.30428e-010 -5.07375e-009 -4.33165e-009 7.73091 5.47488 0.417314 -6.30437e-010 -5.07375e-009 -4.33164e-009 2.90554 0.965183 0.102902 -6.30429e-010 -5.07375e-009 -4.33164e-009 10.2786 0.731801 0.0259123 -6.30439e-010 -5.07375e-009 -4.33163e-009 2.22167 -0.733487 -0.20892 -4.2463e-013 -3.1623e-012 5.14615e-014 -115.474 43.8393 79.7089 27.8898 -29.9872 -67.2209 0.335753 -16.278 2.3518 2.23465e-009 -2.34479e-010 -1.62992e-009 3.87789e-009 -4.04667e-010 -2.78826e-009 2.23464e-009 -2.34483e-010 -1.62991e-009 -7.73091 5.47488 -0.417314 2.23464e-009 -2.3449e-010 -1.62993e-009 -2.90554 0.965183 -0.102902 2.23464e-009 -2.34487e-010 -1.62992e-009 -10.2786 0.731801 -0.0259123 2.23465e-009 -2.34487e-010 -1.62992e-009 -2.22167 -0.733487 0.20892 -2.03217e-016 0 -3.88251e-019 5.95934 22.0872 5.96235 -0.0252478 27.979 1.0093 -0.895908 4.65898 -1.4011 2.03217e-016 0 3.88251e-019 24.6607 -41.1668 14.205 0.316678 40.8136 -0.872419 3.0025 -8.05937 10.1391 
122.024 91.3451 -22.894 2.61761 -11.0678 -80.138 11.2917 14.4403 20.5758 -6.40524 -4.55139 6.03846 -2.27785 -10.4319 -5.28187 5.80507 11.8098 -9.48605 -0 0 0 -0 0 0 -3.14869e-013 -2.25156e-012 2.74882e-014 58.7464 45.213 20.8806 -27.9367 -40.6798 85.1993 -0.537627 -20.3085 -2.98251 -2.76396e-010 -2.28265e-009 -1.93292e-009 -4.53211e-010 -3.94098e-009 -3.33686e-009 -2.76387e-010 -2.28266e-009 -1.93293e-009 7.73091 5.47488 0.417314 -2.76396e-010 -2.28266e-009 -1.93293e-009 2.90554 0.965183 0.102902 -2.76389e-010 -2.28265e-009 -1.93293e-009 10.2786 0.731801 0.0259123 -2.76398e-010 -2.28265e-009 -1.93292e-009 2.22167 -0.733487 -0.20892 -3.14908e-013 -2.25155e-012 2.72055e-014 -114.255 42.6242 80.3347 27.9563 -30.3473 -67.7869 0.310884 -15.6915 2.26245 1.19901e-009 2.73694e-010 9.35785e-012 2.07129e-009 4.74983e-010 3.22031e-011 1.199e-009 2.73694e-010 9.36839e-012 -7.73091 5.47488 -0.417314 1.199e-009 2.73689e-010 9.35252e-012 -2.90554 0.965183 -0.102902 1.19899e-009 2.7369e-010 9.35574e-012 -10.2786 0.731801 -0.0259123 1.19901e-009 2.7369e-010 9.3513e-012 -2.22167 -0.733487 0.20892 -2.03217e-016 0 -3.88251e-019 5.70228 22.6213 7.60551 -0.0990561 30.2603 0.873854 -0.908586 5.1629 -3.21144 2.03217e-016 0 3.88251e-019 24.3734 -38.4121 14.1946 0.185159 32.9013 -0.638218 2.84868 -8.87152 9.51573 
125.74 91.6512 -23.0108 2.59255 -10.8297 -79.3743 10.5741 13.9604 21.5362 -6.51621 -4.30559 6.27316 -2.46978 -10.2705 -5.48758 6.49713 11.9499 -9.87076 -0 0 0 -0 0 0 -1.9141e-013 -1.24407e-012 4.69085e-015 58.1282 45.9801 20.8837 -27.8497 -41.1379 85.9922 -0.523304 -20.087 -2.94644 1.02552e-010 6.39474e-010 6.18925e-010 1.66657e-010 1.12128e-009 1.07689e-009 1.0256e-010 6.3947e-010 6.18919e-010 7.73091 5.47488 0.417314 1.02552e-010 6.39472e-010 6.18919e-010 2.90554 0.965183 0.102902 1.02557e-010 6.39472e-010 6.18924e-010 10.2786 0.731801 0.0259123 1.02549e-010 6.39474e-010 6.18934e-010 2.22167 -0.733487 -0.20892 -1.91407e-013 -1.24407e-012 4.39229e-015 -112.909 41.4429 80.6267 28.0111 -30.6692 -68.3037 0.284114 -15.0126 2.15989 8.13414e-011 7.92507e-010 1.71435e-009 1.22111e-010 1.37303e-009 2.96533e-009 8.13348e-011 7.9251e-010 1.71436e-009 -7.73091 5.47488 -0.417314 8.13423e-011 7.92507e-010 1.71434e-009 -2.90554 0.965183 -0.102902 8.13316e-011 7.92507e-010 1.71435e-009 -10.2786 0.731801 -0.0259123 8.13407e-011 7.92506e-010 1.71434e-009 -2.22167 -0.733487 0.20892 -2.03217e-016 0 -3.88251e-019 5.65417 22.7726 9.10461 -0.172876 33.1331 0.745772 -0.919658 5.56093 -5.05823 2.03217e-016 0 3.88251e-019 24.2779 -35.7513 14.2932 0.114755 25.4076 -0.444772 2.65247 -9.62068 8.81823 
129.41 91.7628 -23.3793 2.64235 -10.758 -78.7881 10.2426 13.3658 22.1933 -6.61152 -3.97036 6.43622 -2.57252 -10.1627 -5.61782 6.94351 12.0783 -10.1235 -0 0 0 -0 0 0 -9.22505e-014 -4.43687e-013 6.5102e-015 57.8683 46.866 20.5418 -27.7599 -41.5287 86.7076 -0.508601 -19.843 -2.90711 3.37851e-010 2.45966e-009 2.17789e-009 5.51947e-010 4.27349e-009 3.7729e-009 3.37858e-010 2.45966e-009 2.17788e-009 7.73091 5.47488 0.417314 3.3785e-010 2.45966e-009 2.17788e-009 2.90554 0.965183 0.102902 3.37855e-010 2.45966e-009 2.17789e-009 10.2786 0.731801 0.0259123 3.37847e-010 2.45966e-009 2.1779e-009 2.22167 -0.733487 -0.20892 -9.22277e-014 -4.43687e-013 6.21202e-015 -111.614 40.3924 80.5909 28.0476 -30.9035 -68.6928 0.261315 -14.4012 2.06813 -6.34473e-010 1.07752e-009 2.65536e-009 -1.12481e-009 1.86625e-009 4.58309e-009 -6.34479e-010 1.07753e-009 2.65537e-009 -7.73091 5.47488 -0.417314 -6.34471e-010 1.07753e-009 2.65535e-009 -2.90554 0.965183 -0.102902 -6.34482e-010 1.07752e-009 2.65536e-009 -10.2786 0.731801 -0.0259123 -6.34474e-010 1.07752e-009 2.65535e-009 -2.22167 -0.733487 0.20892 -2.03217e-016 0 -3.88251e-019 5.72989 22.6641 10.0889 -0.249606 36.297 0.657977 -0.939417 5.94275 -6.60345 2.03217e-016 0 3.88251e-019 24.341 -33.7217 14.3549 0.0852326 19.3005 -0.288027 2.51179 -10.294 8.34682 
133.125 91.7189 -23.6673 2.87649 -10.9298 -78.4652 10.4033 12.4777 22.4704 -6.67815 -3.45449 6.50966 -2.55617 -10.1402 -5.66414 7.05134 12.224 -10.2329 -0 0 0 -0 0 0 -1.67007e-014 1.66247e-013 5.44693e-014 58.0637 47.9015 19.7669 -27.6653 -41.8845 87.3917 -0.492601 -19.5521 -2.86078 3.7732e-010 2.95015e-009 2.48791e-009 6.16074e-010 5.12073e-009 4.30777e-009 3.77324e-010 2.95016e-009 2.4879e-009 7.73091 5.47488 0.417314 3.77319e-010 2.95015e-009 2.4879e-009 2.90554 0.965183 0.102902 3.77324e-010 2.95015e-009 2.48791e-009 10.2786 0.731801 0.0259123 3.77317e-010 2.95015e-009 2.48791e-009 2.22167 -0.733487 -0.20892 -1.66939e-014 1.66244e-013 5.42014e-014 -110.375 39.3984 80.196 28.0668 -31.0344 -68.9142 0.239194 -13.8003 1.97826 -8.40488e-010 1.04961e-009 2.53078e-009 -1.47972e-009 1.81735e-009 4.36569e-009 -8.40494e-010 1.04962e-009 2.53079e-009 -7.73091 5.47488 -0.417314 -8.40486e-010 1.04962e-009 2.53077e-009 -2.90554 0.965183 -0.102902 -8.40496e-010 1.04962e-009 2.53077e-009 -10.2786 0.731801 -0.0259123 -8.40488e-010 1.04962e-009 2.53076e-009 -2.22167 -0.733487 0.20892 -2.03217e-016 0 -3.88251e-019 5.93103 22.2395 10.3386 -0.342671 39.7517 0.622013 -0.977238 6.35861 -7.75454 2.03217e-016 0 3.88251e-019 24.5733 -32.5648 14.3343 0.0656909 14.7594 -0.14793 2.4624 -10.913 8.16773 
136.794 91.5682 -23.7525 3.25573 -11.3076 -78.301 10.9007 11.3867 22.4731 -6.69585 -2.81113 6.51974 -2.44989 -10.1688 -5.63602 6.89233 12.3303 -10.2128 -0 0 0 -0 0 0 5.19348e-014 7.15224e-013 1.31092e-013 58.6395 49.0687 18.6463 -27.5812 -42.2009 87.9844 -0.470138 -19.1272 -2.79355 3.13266e-010 2.73485e-009 2.14368e-009 5.10422e-010 4.74429e-009 3.71043e-009 3.13267e-010 2.73487e-009 2.14367e-009 7.73091 5.47488 0.417314 3.13263e-010 2.73485e-009 2.14367e-009 2.90554 0.965183 0.102902 3.13271e-010 2.73485e-009 2.14368e-009 10.2786 0.731801 0.0259123 3.13264e-010 2.73485e-009 2.14368e-009 2.22167 -0.733487 -0.20892 5.19026e-014 7.15218e-013 1.30875e-013 -109.151 38.4358 79.5055 28.0761 -31.095 -69.0107 0.216709 -13.158 1.88269 -7.87741e-010 8.43798e-010 1.80988e-009 -1.38136e-009 1.46019e-009 3.12106e-009 -7.87747e-010 8.43803e-010 1.8099e-009 -7.73091 5.47488 -0.417314 -7.8774e-010 8.438e-010 1.80988e-009 -2.90554 0.965183 -0.102902 -7.87747e-010 8.438e-010 1.80988e-009 -10.2786 0.731801 -0.0259123 -7.87739e-010 8.43801e-010 1.80987e-009 -2.22167 -0.733487 0.20892 -2.03217e-016 0 -3.88251e-019 6.30559 21.473 10.0893 -0.456002 43.6308 0.625854 -1.0374 6.75445 -8.69168 2.03217e-016 0 3.88251e-019 24.9862 -31.9591 14.2927 0.0484822 11.2946 -0.0104429 2.45899 -11.475 8.12641 
140.457 91.2595 -23.6471 3.57936 -11.8373 -78.1895 11.5839 10.4253 22.3089 -6.70551 -2.20539 6.48825 -2.30105 -10.2029 -5.54562 6.61781 12.3757 -10.0778 -0 0 0 -0 0 0 9.9582e-014 1.06865e-012 2.01059e-013 59.5528 50.301 17.2242 -27.5214 -42.4239 88.3957 -0.44802 -18.6885 -2.72466 1.93867e-010 1.85828e-009 1.27532e-009 3.16273e-010 3.22177e-009 2.2068e-009 1.93865e-010 1.85831e-009 1.27531e-009 7.73091 5.47488 0.417314 1.93863e-010 1.85829e-009 1.27531e-009 2.90554 0.965183 0.102902 1.93873e-010 1.85829e-009 1.27531e-009 10.2786 0.731801 0.0259123 1.93865e-010 1.85829e-009 1.27531e-009 2.22167 -0.733487 -0.20892 9.95082e-014 1.06864e-012 2.00889e-013 -108.027 37.6709 78.6316 28.079 -31.1091 -69.0268 0.199838 -12.6412 1.80625 -5.3084e-010 5.36842e-010 8.19353e-010 -9.27599e-010 9.28312e-010 1.41282e-009 -5.30847e-010 5.36846e-010 8.19379e-010 -7.73091 5.47488 -0.417314 -5.30842e-010 5.36843e-010 8.19351e-010 -2.90554 0.965183 -0.102902 -5.30846e-010 5.36843e-010 8.19348e-010 -10.2786 0.731801 -0.0259123 -5.30837e-010 5.36845e-010 8.19343e-010 -2.22167 -0.733487 0.20892 -2.03217e-016 0 -3.88251e-019 6.82209 20.5363 9.65982 -0.590332 47.8351 0.67402 -1.1228 7.06624 -9.48576 2.03217e-016 0 3.88251e-019 25.5702 -31.593 14.2485 0.0406126 8.87021 0.117241 2.48722 -11.9315 8.1935 
144.223 90.824 -23.4502 3.64802 -12.4607 -78.0167 12.3128 9.92912 22.0746 -6.74914 -1.8025 6.43616 -2.15723 -10.1968 -5.40512 6.38011 12.3389 -9.84271 -0 0 0 -0 0 0 1.12167e-013 1.09193e-012 2.2905e-013 60.7504 51.5306 15.5505 -27.5016 -42.5005 88.5322 -0.431932 -18.3563 -2.67282 6.73005e-011 3.6497e-010 1.2929e-011 1.14909e-010 6.30758e-010 2.28332e-011 6.72974e-011 3.64994e-010 1.29162e-011 7.73091 5.47488 0.417314 6.72967e-011 3.64975e-010 1.29226e-011 2.90554 0.965183 0.102902 6.73067e-011 3.64974e-010 1.29226e-011 10.2786 0.731801 0.0259123 6.72993e-011 3.64973e-010 1.29162e-011 2.22167 -0.733487 -0.20892 1.12069e-013 1.09192e-012 2.28901e-013 -107.065 37.2729 77.6444 28.0781 -31.0999 -69.0076 0.192911 -12.4169 1.77321 -1.24396e-010 2.05515e-010 -1.14134e-010 -2.16327e-010 3.55246e-010 -1.95413e-010 -1.24403e-010 2.05518e-010 -1.14106e-010 -7.73091 5.47488 -0.417314 -1.24398e-010 2.05514e-010 -1.14134e-010 -2.90554 0.965183 -0.102902 -1.24401e-010 2.05515e-010 -1.14137e-010 -10.2786 0.731801 -0.0259123 -1.24393e-010 2.05517e-010 -1.14141e-010 -2.22167 -0.733487 0.20892 -2.03217e-016 0 -3.88251e-019 7.46821 19.605 9.36036 -0.750604 52.2654 0.775147 -1.23728 7.22987 -10.2073 2.03217e-016 0 3.88251e-019 26.3156 -31.1556 14.2235 0.0487753 7.45029 0.226356 2.53053 -12.234 8.33911 
